<?xml version="1.0" encoding="UTF-8"?><svg xmlns="http://www.w3.org/2000/svg" width="2648.7545mm" height="415.4501mm" viewBox="0 0 7508.2807 1177.6538"><defs><style>.cls-1{fill:#66c8f2;opacity:.56;}.cls-1,.cls-2{stroke-width:0px;}.cls-2{fill:#231f20;}</style></defs><g id="point"><rect class="cls-1" x="7096.7509" y="749.5666" width="411.5297" height="411.5297" rx="63.8905" ry="63.8905"/></g><g id="B"><path class="cls-2" d="M861.1115,827.9924c0,115.9182-32.5763,200.1144-97.7028,252.5365-65.1525,52.4481-148.4954,78.6601-250.0538,78.6601H16.5591l-16.5591-16.56V16.56L16.5591,0h463.6758c100.4457,0,183.5302,25.4089,249.2256,76.1755,65.6703,50.7917,98.531,130.2791,98.531,238.4611,0,55.2171-14.0755,103.2408-42.2273,144.071-28.1518,40.8563-63.7555,70.1207-106.811,87.7673v16.56c54.0784,17.6717,97.9621,48.5925,131.651,92.7355,33.6629,44.1681,50.5073,101.5835,50.5073,172.2219ZM662.3932,314.6366c0-64.0139-16.56-107.6382-49.6791-130.8228-33.12-23.1836-88.3362-34.7755-165.5983-34.7755H182.1583l-16.56,16.56v298.0775l16.56,16.56h281.5165c69.5519,0,120.0592-11.8512,151.5228-35.6037,31.4637-23.7274,47.1955-67.0682,47.1955-129.9956ZM695.5132,827.9924c0-73.9512-17.6726-125.5702-52.9919-154.8347-35.3443-29.2384-94.9598-43.8837-178.8465-43.8837H182.1583l-16.56,16.56v347.7566l16.56,16.56h314.6366c67.3257,0,117.2902-14.0764,149.8665-42.2273,32.5502-28.1528,48.8519-74.7785,48.8519-139.931Z"/></g><g id="L"><path class="cls-2" d="M1192.3071,1144.5337l-16.56,16.56h-132.4783l-16.56-16.56V18.4648l16.56-16.56h132.4783l16.56,16.56v1126.0689Z"/></g><g id="U"><path class="cls-2" d="M2069.9554,1144.5337l-16.5591,16.56h-115.9192l-16.56-16.56-16.56-66.2401h-16.56c-2.2252,2.2252-4.9673,5.7964-8.2791,10.7655-3.3127,4.9673-11.049,12.9889-23.1846,24.0109-12.1607,11.0481-25.4089,20.9844-39.7437,29.8073-14.3599,8.8489-33.1191,16.8444-56.3027,24.0128-23.1846,7.1665-46.9371,10.7636-71.2073,10.7636-108.209,0-187.6963-32.8356-238.462-98.531-50.7927-65.6712-76.1755-148.7538-76.1755-249.2256v-480.2358l16.56-16.56h132.4783l16.56,16.56v480.2358c0,132.4783,55.1911,198.7183,165.5983,198.7183,60.703,0,109.0111-23.1836,144.8992-69.5509,35.8621-46.3692,53.8191-117.0058,53.8191-211.9674v-397.4357l16.56-16.56h132.4792l16.5591,16.56v794.8723Z"/></g><g id="E"><path class="cls-2" d="M2616.4284,1177.6538c-128.0799,0-226.3264-39.4592-294.7647-118.4037-68.4653-78.9166-102.6719-182.9856-102.6719-312.1529,0-124.742,32.0074-227.6974,96.0473-308.8402,64.0139-81.1437,158.9747-121.7156,284.8293-121.7156s220.7894,40.5719,284.8293,121.7156c64.0148,81.1428,96.0473,184.0982,96.0473,308.8402v49.68l-16.56,16.56h-546.4749l-16.56,16.56c0,9.9364,1.0875,21.2689,3.3127,33.9473,2.1992,12.7044,7.4518,29.2645,15.7318,49.68,8.28,20.4398,19.5865,38.6561,33.9473,54.6473,14.3348,16.0153,35.6037,30.0917,63.7555,42.2273,28.1518,12.1616,60.9865,18.2164,98.531,18.2164,83.8857,0,139.1028-33.12,165.5983-99.3601l16.56-16.56h132.4792l16.5591,16.56c-8.8489,70.6645-42.5117,129.7362-101.0146,177.191-58.5289,47.4808-135.2472,71.2073-230.182,71.2073ZM2782.0267,680.8589l16.56-16.56c0-17.6475-2.2252-35.6037-6.6236-53.82-4.4244-18.2155-12.42-39.1739-24.0118-62.9273-11.5918-23.7274-32.0334-43.3148-61.2719-58.7873-29.2645-15.4474-64.8681-23.1836-106.811-23.1836-41.9689,0-77.5726,7.7362-106.811,23.1836-29.2645,15.4725-49.6791,35.0599-61.2709,58.7873-11.5918,23.7534-19.6134,44.7119-24.0118,62.9273-4.4244,18.2164-6.6246,36.1725-6.6246,53.82l16.56,16.56h364.3166Z"/></g><g id="P"><path class="cls-2" d="M4073.6762,333.1014c0,110.4082-35.0608,193.2073-105.1546,248.3974-70.1198,55.2171-162.0271,82.8001-275.722,82.8001h-347.7557l-16.56,16.56v463.6748l-16.56,16.56h-132.4792l-16.5591-16.56V18.4648l16.5591-16.56h513.3549c120.3185,0,213.8822,27.0643,280.6893,81.1428,66.7829,54.1045,100.1873,137.4474,100.1873,250.0538ZM3856.7434,473.0324c34.2057-28.1518,51.3346-74.7785,51.3346-139.931s-17.1289-111.7792-51.3346-139.9301c-34.2336-28.1518-88.8809-42.2282-163.9438-42.2282h-347.7557l-16.56,16.56v331.1966l16.56,16.56h347.7557c75.0629,0,129.7102-14.0755,163.9438-42.2273Z"/></g><g id="O"><path class="cls-2" d="M4229.3456,1061.7355c-70.6626-77.2621-105.9819-182.1583-105.9819-314.6384s35.3192-237.3484,105.9819-314.6366c70.6385-77.2621,167.7975-115.9192,291.4548-115.9192s220.7884,38.6571,291.4529,115.9192c70.6366,77.2881,105.9819,182.1583,105.9819,314.6366s-35.3453,237.3763-105.9819,314.6384c-70.6645,77.2863-167.8235,115.9182-291.4529,115.9182s-220.8163-38.632-291.4548-115.9182ZM4348.5766,538.4433c-39.7437,48.5935-59.6146,118.1444-59.6146,208.6538s19.8709,160.0882,59.6146,208.6547c39.7437,48.5925,97.1349,72.8637,172.2238,72.8637s132.4783-24.2712,172.2219-72.8637c39.7437-48.5665,59.6146-118.1174,59.6146-208.6547s-19.8709-160.0603-59.6146-208.6538c-39.7437-48.5665-97.1609-72.8628-172.2219-72.8628s-132.4801,24.2963-172.2238,72.8628Z"/></g><g id="I"><path class="cls-2" d="M5232.8643,184.0631l-16.56,16.56h-132.4801l-16.56-16.56V51.5839l16.56-16.56h132.4801l16.56,16.56v132.4792ZM5232.8643,1144.5337l-16.56,16.56h-132.4801l-16.56-16.56V349.6614l16.56-16.56h132.4801l16.56,16.56v794.8723Z"/></g><g id="N"><path class="cls-2" d="M6143.6316,1144.5337l-16.56,16.56h-132.4801l-16.56-16.56v-480.2348c0-132.4792-55.2162-198.7183-165.5983-198.7183-75.0871,0-129.7362,22.0971-163.9419,66.2391-34.2317,44.1681-51.3346,115.9192-51.3346,215.2774v397.4366l-16.56,16.56h-132.4801l-16.56-16.56V349.6614l16.56-16.56h115.9201l16.56,16.56,16.56,66.2391h16.5582c2.2011-2.1992,4.9691-5.7954,8.28-10.7636,3.3127-4.9682,11.5928-12.9628,24.84-24.0118,13.2491-11.023,27.3237-20.9584,42.2273-29.8073,14.9055-8.8238,35.0348-16.8193,60.4437-24.0118,25.3829-7.1674,51.8792-10.7646,79.4873-10.7646,110.3821,0,190.4383,31.2053,240.1184,93.5637,49.68,62.3836,74.5201,147.1235,74.5201,254.1938v480.2348Z"/></g><g id="T"><path class="cls-2" d="M6772.9029,1144.5337l-16.56,16.56h-132.4783c-64.0409,0-118.6882-18.4748-163.9438-55.4746-45.2798-36.9756-67.8946-90.2528-67.8946-159.8038v-447.1157l-16.56-16.5591h-115.9182l-16.56-16.56v-115.9192l16.56-16.56h115.9182l16.56-16.56v-149.0383l16.56-16.56h132.4783l16.56,16.56v149.0383l16.56,16.56h182.1583l16.56,16.56v115.9192l-16.56,16.56h-182.1583l-16.56,16.5591v447.1157c0,44.1681,22.072,66.2401,66.2401,66.2401h132.4783l16.56,16.56v115.9182Z"/></g></svg>